 <svg id="wave" style="transform:rotate(0deg); transition: 0.3s" viewBox="0 0 1440 490" version="1.1" xmlns="http://www.w3.org/2000/svg">
            <defs>
                <linearGradient id="sw-gradient-0" x1="0" x2="0" y1="1" y2="0">
                    <stop stop-color="rgba(47, 52, 56, 1)" offset="0%"></stop>
                    <stop stop-color="rgba(47, 52, 56, 1)" offset="100%"></stop>
                </linearGradient>
            </defs>
            <path style="transform:translate(0, 0px); opacity:1" fill="url(#sw-gradient-0)"
                d="M0,196L120,236.8C240,278,480,359,720,326.7C960,294,1200,147,1440,98C1680,49,1920,98,2160,130.7C2400,163,2640,180,2880,212.3C3120,245,3360,294,3600,326.7C3840,359,4080,376,4320,351.2C4560,327,4800,261,5040,196C5280,131,5520,65,5760,40.8C6000,16,6240,33,6480,57.2C6720,82,6960,114,7200,138.8C7440,163,7680,180,7920,212.3C8160,245,8400,294,8640,294C8880,294,9120,245,9360,220.5C9600,196,9840,196,10080,187.8C10320,180,10560,163,10800,179.7C11040,196,11280,245,11520,245C11760,245,12000,196,12240,196C12480,196,12720,245,12960,245C13200,245,13440,196,13680,212.3C13920,229,14160,310,14400,302.2C14640,294,14880,196,15120,196C15360,196,15600,294,15840,277.7C16080,261,16320,131,16560,106.2C16800,82,17040,163,17160,204.2L17280,245L17280,490L17160,490C17040,490,16800,490,16560,490C16320,490,16080,490,15840,490C15600,490,15360,490,15120,490C14880,490,14640,490,14400,490C14160,490,13920,490,13680,490C13440,490,13200,490,12960,490C12720,490,12480,490,12240,490C12000,490,11760,490,11520,490C11280,490,11040,490,10800,490C10560,490,10320,490,10080,490C9840,490,9600,490,9360,490C9120,490,8880,490,8640,490C8400,490,8160,490,7920,490C7680,490,7440,490,7200,490C6960,490,6720,490,6480,490C6240,490,6000,490,5760,490C5520,490,5280,490,5040,490C4800,490,4560,490,4320,490C4080,490,3840,490,3600,490C3360,490,3120,490,2880,490C2640,490,2400,490,2160,490C1920,490,1680,490,1440,490C1200,490,960,490,720,490C480,490,240,490,120,490L0,490Z">
            </path>
        </svg>